<svg width="2048" height="1803" viewBox="0 0 2048 1803" fill="none" xmlns="http://www.w3.org/2000/svg">
<path d="M1742.69 1269.01C1742.69 1678.83 1410.46 1802.86 1000.63 1802.86C590.811 1802.86 258.583 1678.83 258.583 1269.01C258.583 859.183 590.811 526.955 1000.63 526.955C1410.46 526.955 1742.69 859.183 1742.69 1269.01Z" fill="black"/>
<path d="M1095.75 146.066C1048.16 184.896 959.332 184.896 911.736 146.066C851.431 96.869 803.56 87.1435 754.041 77.0832C708.19 67.7683 660.927 58.1662 601.072 16.6783C551.5 -17.6814 477.95 2.67656 483.051 62.7755C491.226 159.088 537.752 237.236 615.954 328.677C692.207 417.838 817.993 431.714 920.008 426.24L895.448 504.229C889.351 523.59 872.763 537.654 852.868 541.675C513.845 610.185 258.595 909.789 258.595 1269.01C258.595 1328.55 265.609 1382.07 278.854 1430.04C161.268 1484.19 -17.0165 1594.25 1.30828 1662.64C24.4149 1748.88 351.376 1736.2 437.611 1713.09C453.864 1708.73 468.871 1702.05 482.37 1693.5C616.116 1772.83 798.987 1802.86 1000.65 1802.86C1215.41 1802.86 1408.87 1768.8 1544.37 1677.4C1562.67 1693.82 1585.01 1706.29 1610.39 1713.09C1696.62 1736.2 2023.59 1748.88 2046.69 1662.64C2067.39 1585.39 1837.23 1454.97 1727.06 1412.02C1737.31 1368.76 1742.7 1321.2 1742.7 1269.01C1742.7 913.539 1492.75 616.446 1159.01 543.896C1139.47 539.647 1123.26 525.687 1117.25 506.608L1092.01 426.47C1193.2 431.288 1316.41 416.522 1391.54 328.677C1469.74 237.236 1516.26 159.088 1524.44 62.7755C1529.54 2.67659 1455.99 -17.6814 1406.42 16.6783C1346.56 58.1662 1299.3 67.7683 1253.45 77.0833C1203.93 87.1436 1156.06 96.869 1095.75 146.066Z" fill="black"/>
<path d="M512.951 1023.5C671.681 1058.48 763.502 1225.04 712.852 1275.59C676.016 1312.35 598.834 1250.88 499.242 1233.21C397.542 1215.16 355.134 1200.78 355.222 1135.55C355.3 1077.56 411.361 1001.12 512.951 1023.5Z" fill="white"/>
<path d="M1497.14 1023.5C1338.41 1058.48 1246.59 1225.04 1297.24 1275.59C1334.08 1312.35 1411.26 1250.88 1510.85 1233.21C1612.55 1215.16 1654.96 1200.78 1654.87 1135.55C1654.79 1077.56 1598.73 1001.12 1497.14 1023.5Z" fill="white"/>
<path d="M453.998 1675.41C404.31 1606.29 376.035 1526.84 376.035 1442.32C376.035 1276.4 485.016 1307.38 651.056 1354.58C752.125 1383.31 874.336 1418.05 1005.98 1418.05C1137.62 1418.05 1259.83 1383.31 1360.9 1354.58C1526.94 1307.38 1635.92 1276.4 1635.92 1442.32C1635.92 1520.61 1611.66 1594.54 1568.6 1659.95C1432.48 1764.49 1228.56 1802.86 1000.64 1802.86C784.327 1802.86 589.632 1768.3 453.998 1675.41Z" fill="white"/>
</svg>
